<svg xmlns:xlink="http://www.w3.org/1999/xlink" viewBox="1871.761658031088 3322 4866.5803108808295 4356" style="max-height: 500px" version="1.1" xml:space="preserve" xmlns="http://www.w3.org/2000/svg" width="4866.5803108808295" height="4356">
 <defs>
  <style type="text/css">
   
    .fil2 {fill:#2B2A29}
    .fil0 {fill:#D1A03D}
    .fil3 {fill:#6B3F1C}
    .fil1 {fill:#1E2020}
    .fil6 {fill:#E6C86E;fill-rule:nonzero}
    .fil5 {fill:url(#id11)}
    .fil7 {fill:url(#id12)}
    .fil4 {fill:url(#id13)}
   
  </style>
  <clipPath id="id0">
   <path d="M3839.85 1672.23l0 7660.37 7220.92 0 0 -7660.37 -7220.92 0z"/>
  </clipPath>
  <clipPath id="id1">
   <path d="M11052.54 9331.25l0 -7658.12 -8812.5 0 0 7658.12 8812.5 0z"/>
  </clipPath>
  <clipPath id="id2">
   <path d="M6140.62 1787.52l2066.45 0 0 2139.47 -2066.45 0 0 -2139.47z"/>
  </clipPath>
  <clipPath id="id3">
   <path d="M-2558.84 1673.69l13617.52 0 0 7655.68 -13617.52 0 0 -7655.68z"/>
  </clipPath>
  <clipPath id="id4">
   <path d="M8519.76 7079.88l2066.2 0 0 2138.1 -2066.2 0 0 -2138.1z"/>
  </clipPath>
  <clipPath id="id5">
   <path d="M6140.93 4190.26l2065.83 0 0 2139.56 -2065.83 0 0 -2139.56z"/>
  </clipPath>
  <clipPath id="id6">
   <path d="M6140.96 6593.32l2065.79 0 0 2139 -2065.79 0 0 -2139z"/>
  </clipPath>
  <clipPath id="id7">
   <path d="M8519.99 2273.8l2065.74 0 0 2139.14 -2065.74 0 0 -2139.14z"/>
  </clipPath>
  <clipPath id="id8">
   <path d="M8520.09 4676.14l2065.52 0 0 2140.02 -2065.52 0 0 -2140.02z"/>
  </clipPath>
  <clipPath id="id9">
   <rect height="7672.93" width="6485.74" y="-2165.12" x="11389.02"/>
  </clipPath>
  <clipPath id="id10">
   <path d="M3789.24 9332.18l0 -7659.19 7270.31 0 0 7659.19 -7270.31 0z"/>
  </clipPath>
  <linearGradient y2="6266.15" x2="5652.56" y1="6266.15" x1="2832.56" gradientUnits="userSpaceOnUse" id="id11">
   <stop style="stop-opacity:1; stop-color:#CC9933" offset="0"/>
   <stop style="stop-opacity:1; stop-color:#FFE7B8" offset="0.188235"/>
   <stop style="stop-opacity:1; stop-color:#CC9933" offset="0.478431"/>
   <stop style="stop-opacity:1; stop-color:#FCEF9F" offset="0.741176"/>
   <stop style="stop-opacity:1; stop-color:#AD8D2A" offset="1"/>
  </linearGradient>
  <linearGradient y2="4766.65" x2="4242.56" y1="4766.65" x1="3393.68" xlink:href="#id11" gradientUnits="userSpaceOnUse" id="id12">
  </linearGradient>
  <linearGradient y2="4766.65" x2="5091.43" y1="4766.65" x1="4242.56" gradientUnits="userSpaceOnUse" id="id13">
   <stop style="stop-opacity:1; stop-color:#72511C" offset="0"/>
   <stop style="stop-opacity:1; stop-color:#CC9933" offset="0.301961"/>
   <stop style="stop-opacity:1; stop-color:#FFE7B8" offset="0.619608"/>
   <stop style="stop-opacity:1; stop-color:#AD8D2A" offset="1"/>
  </linearGradient>
 </defs>
<symbol viewBox="7406.36 1796.76 3653.52 7534.19" id="Fm157-157-0">
 <polygon points="7406.36,9330.94 11059.88,1796.76 11059.88,5723.72 9310.65,9330.94" class="fil0"/>
</symbol>
<symbol viewBox="5502.07 1672.5 5557.81 7658.44" id="Fm167-167-0">
 <polygon points="5502.07,9330.94 9215.85,1672.5 11059.88,1672.5 11059.88,1796.76 7406.36,9330.94" class="fil1"/>
</symbol>
<symbol viewBox="3597.78 1672.5 5618.07 7658.44" id="Fm177-177-0">
 <polygon points="3597.78,9330.94 7311.56,1672.5 9215.85,1672.5 5502.07,9330.94" class="fil0"/>
</symbol>
<symbol viewBox="3839.85 1672.23 7220.92 7660.37" id="Fm257-257-0">
 <g style="clip-path:url(#id0)">
  <image xlink:href="Kensington logo_Images\Kensington logo_ImgID1.png" height="7664.71" width="7222.96" y="1670.06" x="3839.85"/>
 </g>
</symbol>
<symbol viewBox="5502.07 1672.5 5557.81 7658.44" id="Fm247-247-0">
 <polygon points="5502.07,9330.94 9215.85,1672.5 11059.88,1672.5 11059.88,1796.76 7406.36,9330.94" class="fil1"/>
</symbol>
<symbol viewBox="8519.86 2273.93 2065.99 2138.89" id="Fm541-541-0">
 <polygon points="8519.86,2273.93 10585.85,2273.93 10585.85,4412.81 8519.86,4412.81" class="fil1"/>
</symbol>
<symbol viewBox="2240.03 1673.13 8812.5 7658.12" id="Fm145-145-0">
 <g style="clip-path:url(#id1)">
  <image xlink:href="Kensington logo_Images\Kensington logo_ImgID2.png" height="7666.81" width="8815" y="1668.79" x="2240.03"/>
 </g>
</symbol>
<symbol viewBox="7406.35 1796.74 3653.53 7534.2" id="Fm58-58-0">
 <polygon points="11059.88,5723.71 9310.64,9330.94 7406.35,9330.94 11059.88,1796.74" class="fil0"/>
</symbol>
<symbol viewBox="6140.62 1787.52 2066.45 2139.47" id="Fm529-529-0">
 <g style="clip-path:url(#id2)">
  <image xlink:href="Kensington logo_Images\Kensington logo_ImgID3.png" height="2148" width="2069.97" y="1783.26" x="6138.86"/>
 </g>
</symbol>
<symbol viewBox="3597.77 1672.5 5618.07 7658.44" id="Fm38-38-0">
 <polygon points="9215.84,1672.5 5502.06,9330.94 3597.77,9330.94 7311.55,1672.5" class="fil0"/>
</symbol>
<symbol viewBox="5502.06 1672.5 5557.82 7658.44" id="Fm48-48-0">
 <polygon points="11059.88,1796.74 7406.35,9330.94 5502.06,9330.94 9215.84,1672.5 11059.88,1672.5" class="fil1"/>
</symbol>
<symbol viewBox="-2558.84 1673.69 13617.52 7655.68" id="Fm25-25-0">
 <g style="clip-path:url(#id3)">
  <image xlink:href="Kensington logo_Images\Kensington logo_ImgID4.png" height="7670.89" width="13629.11" y="1665" x="-2562.7"/>
 </g>
</symbol>
<symbol viewBox="8519.76 7079.88 2066.2 2138.1" id="Fm639-639-0">
 <g style="clip-path:url(#id4)">
  <image xlink:href="Kensington logo_Images\Kensington logo_ImgID5.png" height="2146.62" width="2073.25" y="7075.62" x="8516.23"/>
 </g>
</symbol>
<symbol viewBox="6140.93 4190.26 2065.83 2139.56" id="Fm573-573-0">
 <g style="clip-path:url(#id5)">
  <image xlink:href="Kensington logo_Images\Kensington logo_ImgID6.png" height="2148.09" width="2067" y="4186" x="6140.34"/>
 </g>
</symbol>
<symbol viewBox="6140.96 6593.32 2065.79 2139" id="Fm595-595-0">
 <g style="clip-path:url(#id6)">
  <image xlink:href="Kensington logo_Images\Kensington logo_ImgID7.png" height="2145.07" width="2068.72" y="6590.28" x="6139.79"/>
 </g>
</symbol>
<symbol viewBox="8519.99 2273.8 2065.74 2139.14" id="Fm551-551-0">
 <g style="clip-path:url(#id7)">
  <image xlink:href="Kensington logo_Images\Kensington logo_ImgID8.png" height="2148.88" width="2073.96" y="2268.93" x="8515.88"/>
 </g>
</symbol>
<symbol viewBox="8520.09 4676.14 2065.52 2140.02" id="Fm617-617-0">
 <g style="clip-path:url(#id8)">
  <image xlink:href="Kensington logo_Images\Kensington logo_ImgID9.png" height="2146.1" width="2069.04" y="4673.1" x="8518.33"/>
 </g>
</symbol>
<symbol viewBox="6140.85 4190.59 2065.99 2138.89" id="Fm563-563-0">
 <polygon points="6140.85,4190.59 8206.83,4190.59 8206.83,6329.48 6140.85,6329.48" class="fil1"/>
</symbol>
<symbol viewBox="8519.86 4676.7 2065.99 2138.89" id="Fm607-607-0">
 <polygon points="8519.86,4676.7 10585.85,4676.7 10585.85,6815.59 8519.86,6815.59" class="fil1"/>
</symbol>
<symbol viewBox="6140.85 6593.37 2065.99 2138.89" id="Fm585-585-0">
 <polygon points="6140.85,6593.37 8206.83,6593.37 8206.83,8732.26 6140.85,8732.26" class="fil2"/>
</symbol>
<symbol viewBox="11389.02 -2165.12 6485.74 7672.93" id="Fm1067-1067-0">
 <g style="clip-path:url(#id9)">
  <image xlink:href="Kensington logo_Images\Kensington logo_ImgID10.png" height="7672.93" width="6485.74" y="-2165.12" x="11389.01"/>
 </g>
</symbol>
<symbol viewBox="3789.24 1673 7270.31 7659.19" id="Fm1172-1172-0">
 <g style="clip-path:url(#id10)">
  <image xlink:href="Kensington logo_Images\Kensington logo_ImgID11.png" height="7667.88" width="7280.63" y="1666.47" x="3785.11"/>
 </g>
</symbol>
<symbol viewBox="8519.86 7079.48 2065.99 2138.89" id="Fm629-629-0">
 <polygon points="8519.86,7079.48 10585.85,7079.48 10585.85,9218.37 8519.86,9218.37" class="fil1"/>
</symbol>
 <g id="Слой_x0020_1">
  <metadata id="CorelCorpID_0Corel-Layer"/>
  <g id="_1792190839248">
   <path d="M4951.97 5748.56c-10.36,-2.22 -20.7,-4.61 -31.13,-7.17 -0,-36.37 -0.02,-72.74 -0.03,-109.13l31.2 0c-0.02,38.81 -0.04,77.59 -0.04,116.29zm-278.89 43.96c-17.67,-5.37 -35.18,-10.54 -52.7,-15.94l-0.07 -119.19 52.89 6.26 0.09 -0.02c-0.07,42.28 -0.15,85.14 -0.22,128.89zm-52.84 -220.93l-0.04 -59.93 53.12 0.05 0.22 0.03c-0.01,19.95 -0.04,39.94 -0.08,60.02l-0.26 -0.04 -52.96 -0.13zm-0.1 -159.78l-0.07 -75.63 53.31 -2.72 0.26 0.11c-0.03,25.23 -0.04,50.32 -0.06,75.35l-0.2 -0.09 -53.24 2.97zm-0.13 -169.17l-0.05 -69.55 53.6 -5.46 0 0 0.28 0.19 -0.09 70.6 -0.26 -0.17 -53.49 4.39zm-0.08 -114.65l-0.02 -36.71c-0.05,-77.78 -0.09,-155.63 -0.11,-233.48l54.33 -10.98 0.05 0.05c-0.01,22.28 -0.04,44.56 -0.07,66.83l-0.11 -0.14 -54.06 7.99 0 89.3 53.85 -5.38 0.22 0.2 -0.07 68.35 -0.25 -0.22 -53.75 6.52 0 47.67zm-0.18 -360.5l-0.02 -65.89 54.06 -10.53 0.45 0.65c-0,17.96 -0.02,35.91 -0.02,53.85l0 12.02 -0.53 -0.75 -0.01 -0.03 0 0.03 -53.93 10.65zm-0.06 -163.85c-0.02,-66.11 -0.06,-132.22 -0.11,-198.31 18.32,-6.08 36.8,-12.36 54.97,-18.63 0,68.16 -0.11,136.37 -0.2,204.51l-0.67 -1.17 0 0.06 -53.98 11.2 0 2.36zm298.33 1032.37l0 -0.01 2.61 -0.28 -2.61 0.29zm2.44 -84.7l31.37 -0.02 0.25 0.03 -0.04 55.77 -0.23 -0.03 -31 0.04 -0.03 -55.79 -0.31 0zm0.26 -96.33l31.15 -3.38 0.28 0.11c-0.01,22.69 -0.03,45.36 -0.04,68.05l-0.27 -0.1 -31.2 -0.04 0.12 0 -0.04 -64.65zm-0.26 -93.61l31.47 -4.87 0.22 0.15c0.01,20.65 0.01,41.31 0,61.98l-0.27 -0.18 -31.26 3.57 0.07 -0.01 -0.04 -60.69 -0.21 0.03zm0.17 -125.47l0.01 0.02 0 -36.18 -0.03 -0.04 0 -13.25 -0.14 0.04 31.55 -6.07 0.13 0.15 0 56.56 -0.16 -0.18 -31.35 5.83 -0 -6.87zm-0.06 -93.2l0.07 0.09 0 -37.06 -2.99 -4.26 2.9 4.13 0 -4.07 31.5 -3.98 0.07 0.11 0.01 55.69 -0.1 -0.15 -31.44 5.76 -0.01 -16.26zm-0.14 -184.96l31.64 -4.45c0.02,39.52 0.05,79.03 0.05,118.55l-0.05 -0.08 -31.54 3.55c0,35.24 -0.11,-114.53 -0.11,-117.56zm0.21 315.91l31.35 -7.55 0.16 0.15 0.01 58.85 -0.2 -0.18 -31.31 4.83 0.02 0 -0.02 -42.72 -0.01 -13.37z" class="fil3"/>
   <path d="M4951.73 5748.44c0.03,-38.67 0.06,-77.41 0.07,-116.18l0.31 0 0 -0.09 104.43 -11.78 -104.74 -13.33 0.02 -55.77 123.77 17.6 -123.76 -49.23 0.03 -68.06 148.12 62.56 -148.1 -95.7 0.04 -53.2 0.01 -8.76 140.85 95.49 -140.83 -127.06 0.02 -58.83 129.23 120.94 -129.21 -150.08 0.02 -56.54 120.53 144.37 -120.52 -171.59 0.02 -55.65 0 0 107.46 156.77c-24.11,-40.69 -107.44,-182.63 -107.44,-182.57l-0.02 0c0.02,-41.07 0.04,-81.14 0.07,-118.74 55.93,106.73 129.66,261.91 168.36,338.19 84.61,160.96 60.45,290.11 0.68,369.64 -36.48,52.16 -97.23,75.81 -169.42,87.59zm-709.21 -2047.38l0 188.75c42.07,3.73 182.04,267.82 219.47,332.55 52.47,90.71 104.93,181.92 157.4,273.21 -0.02,-79.17 -0.03,-158.36 -0.03,-237.58 -62.75,-116.03 -126.25,-233.67 -190.4,-352.49 -49.34,-91.44 -102.8,-198.41 -186.44,-204.44zm0 360.57l0 81.27 376.91 536.69 -0.01 -67.74 -376.9 -550.22zm0 268.71l0 82.3 376.97 437.98 -0.03 -68.65 -376.94 -451.62zm0 271.25l0 83.16 377.04 340.22 -0.03 -70.3 -377.01 -353.08zm0 273.78l0 84.05 377.05 243.94 0 39.31 0.05 0c-0.01,-57.59 -0.02,-115.18 -0.05,-172.73l0 61.13 -377.05 -255.71zm0 276.49l0 85.03 377.05 150.26 0 24.69 0.08 -0.01 -0.01 -75.62 -0.07 0 0 -25.04 -377.05 -159.32zm377.22 650.82c-24.32,4.24 -119.48,17.48 -208.16,29.46 -8.98,-8.95 -18.62,-17.3 -28.87,-24.94l0 -110.8 236.85 -26.72 0 -12.38 0.14 0.01c0,48.48 0.02,96.93 0.03,145.37zm-237.03 -268.06l0 -64.26 236.85 33.69 0 7.6 0.11 0 0 59.93 -0.11 0 0 -6.81 -236.85 -30.15zm290.36 254.02c0.05,-41.87 0.09,-83.53 0.13,-125l247.43 -27.91 0 -3.46 0.18 0c0.01,39.24 0.03,78.48 0.03,117.7 -40.63,6.44 -81.44,12.72 -122.54,19.24 -41.48,6.58 -83.16,12.97 -125.22,19.42zm0.2 -216.91l0.04 -60.02 247.45 35.13 0.03 56.26 -247.52 -31.37zm0.1 -162.89l0.05 -75.36 247.04 104.84c0,22.91 0.21,45.68 0.17,68.84l-247.26 -98.32zm0.11 -170.59l0.07 -70.62 246.9 167.52c0,28.99 0.23,57.72 0.24,86.89l-0.07 0.01 0 -23.91 -247.14 -159.89zm0.18 -164.44c0.02,-22.8 0.03,-45.57 0.03,-68.33l0.07 -0.01 246.85 231.19 0 6.87 0 0.08 0 7.24 0 22.81 0 0 0.01 13.37 0.02 42.72 -0.02 0 0 -33.09 -246.96 -222.86zm-0.03 -160.19l-0.07 -66.69 0.55 -0.11 246.45 295.89 0.01 16.26 -0.12 0.02 0 28.24 0.14 -0.03 0 13.25 -246.62 -286.9 -0.35 0.06zm-0.15 -156.73c-0.01,-21.89 -0.03,-43.8 -0.02,-65.74l0.31 -0.06 246.81 360.24 -0.06 35.47 0 17.5 0.01 -0.01 0 4.08 -246.86 -351.51 -0.01 -0.03 0 0.03 -0.18 0.04zm0.08 -166.78c0.13,-67.16 0.42,-134.86 0.97,-203.41 41.28,74.75 84.49,145.67 125.2,219.23 40.43,73.07 80.67,145.45 120.51,217.76 0.08,64.63 0.16,129.23 0.22,193.81 -82.27,-141.3 -164.54,-284.3 -246.8,-427.46l0 0.06 -0.1 0.02z" class="fil4"/>
   <path d="M4336.93 5806.74l0 -344.35c0,-51.93 -42.48,-94.42 -94.41,-94.42l0 0c-51.93,0 -94.42,42.49 -94.42,94.42 0,114.78 0,229.56 0,344.35 67.47,-16.39 129.65,-13.59 188.83,0zm-318.52 949.13l-821.1 -43.63 819.94 0 225.27 0 217.39 0 827.83 0 -828.32 44.02c-2.26,120.27 -12.26,232.88 -32.94,321.93 -99.9,30.42 -286.25,25.5 -369.67,0 -22.22,-89.18 -34.24,-201.92 -38.41,-322.31zm22.26 -505.31l-1208.18 47.59 1202.85 0 207.18 0 194.59 0 1215.44 0 -1221.03 -48.09c-11.91,-96.57 -26.59,-182.04 -42.08,-245.85 -99.65,-13.09 -201.09,-14.41 -304.94,0 -17.13,64.08 -32.24,149.7 -43.84,246.35zm338.67 -297.2c-17.18,-61.67 -34.83,-102.18 -50.43,-111.26 0,-0.26 0,-0.54 0,-0.8 -57.82,-10.16 -115.65,-10.85 -173.47,0 0,0.26 0,0.54 0,0.8 -20.54,11.95 -40.99,52.05 -59.64,111.26 96.7,-15.92 191.05,-14.65 283.54,0zm22.55 1205.67c1.76,-4.42 3.46,-8.97 5.14,-13.6 -102.7,18.38 -234.66,19.42 -329.64,0 1.97,5.22 3.97,10.37 6.03,15.3 77.2,183.87 243.77,185.25 318.47,-1.7l0 0z" class="fil5"/>
   <polygon points="2247.01,6614.55 2247.01,6430.8 2284.22,6430.8 2284.22,6512.15 2359.16,6430.8 2409.21,6430.8 2339.66,6502.4 2412.8,6614.55 2364.81,6614.55 2314.25,6528.31 2284.22,6558.86 2284.22,6614.55" class="fil6"/>
   <polygon points="2691.77,6614.55 2691.77,6430.8 2827.78,6430.8 2827.78,6461.85 2728.98,6461.85 2728.98,6502.65 2820.85,6502.65 2820.85,6533.7 2728.98,6533.7 2728.98,6583.49 2831.38,6583.49 2831.38,6614.55" class="fil6"/>
   <polygon points="3122.88,6614.55 3122.88,6430.8 3158.81,6430.8 3234.52,6553.98 3234.52,6430.8 3268.91,6430.8 3268.91,6614.55 3231.7,6614.55 3157.27,6493.67 3157.27,6614.55" class="fil6"/>
   <path d="M3558.39 6555.01l36.19 -3.59c2.31,12.06 6.67,21.04 13.09,26.69 6.67,5.65 15.66,8.47 26.95,8.47 11.8,0 20.79,-2.57 26.94,-7.7 5.91,-4.87 8.98,-10.78 8.98,-17.71 0,-4.36 -1.28,-7.96 -3.85,-11.04 -2.57,-3.08 -6.93,-5.65 -13.35,-7.96 -4.11,-1.54 -14.11,-4.11 -29.51,-7.95 -19.76,-4.88 -33.62,-11.04 -41.57,-18.22 -11.29,-10.26 -16.94,-22.58 -16.94,-37.21 0,-9.24 2.56,-18.22 7.95,-26.18 5.39,-8.21 12.83,-14.37 22.84,-18.73 10.01,-4.36 22.07,-6.42 36.19,-6.42 22.84,0 40.29,5.13 51.84,15.4 11.55,10.01 17.71,23.61 18.22,40.81l-37.21 1.28c-1.54,-9.5 -4.88,-16.43 -10.01,-20.53 -5.39,-4.11 -13.09,-6.16 -23.35,-6.16 -10.78,0 -19.25,2.31 -25.15,6.67 -3.85,2.82 -5.91,6.67 -5.91,11.55 0,4.36 1.8,7.96 5.65,11.04 4.62,4.11 15.91,8.21 33.88,12.32 17.96,4.36 31.31,8.72 40.04,13.34 8.47,4.62 15.4,10.78 20.28,18.74 4.87,7.7 7.19,17.45 7.19,29.26 0,10.52 -2.82,20.28 -8.72,29.52 -5.91,9.24 -14.12,15.91 -24.89,20.53 -10.52,4.36 -23.87,6.67 -40.04,6.67 -23.09,0 -41.06,-5.39 -53.38,-16.17 -12.57,-10.52 -19.76,-26.18 -22.33,-46.71z" class="fil6"/>
   <polygon points="3997.98,6614.55 3997.98,6430.8 4035.19,6430.8 4035.19,6614.55" class="fil6"/>
   <polygon points="4330.5,6614.55 4330.5,6430.8 4366.43,6430.8 4442.13,6553.98 4442.13,6430.8 4476.52,6430.8 4476.52,6614.55 4439.31,6614.55 4364.89,6493.67 4364.89,6614.55" class="fil6"/>
   <path d="M4861.23 6547.05l0 -31.06 79.81 0 0 73.4c-7.7,7.44 -18.99,14.11 -33.62,19.76 -14.89,5.9 -29.77,8.72 -44.91,8.72 -19.25,0 -35.93,-4.11 -50.3,-12.06 -14.11,-8.21 -24.89,-19.76 -32.08,-34.65 -7.19,-15.14 -10.78,-31.57 -10.78,-49.28 0,-18.99 4.11,-36.19 12.06,-51.07 7.95,-14.89 19.76,-26.18 35.16,-34.13 11.81,-6.16 26.43,-9.24 43.89,-9.24 22.84,0 40.81,4.88 53.64,14.37 12.83,9.5 21.04,22.84 24.64,39.78l-36.96 6.93c-2.57,-8.98 -7.44,-16.17 -14.63,-21.56 -6.93,-5.13 -15.91,-7.7 -26.69,-7.7 -16.17,0 -29,5.13 -38.5,15.4 -9.5,10.27 -14.37,25.67 -14.37,45.94 0,21.81 4.87,38.24 14.63,49.02 9.5,11.04 22.33,16.43 37.98,16.43 7.7,0 15.4,-1.54 23.35,-4.62 7.7,-3.08 14.37,-6.67 20.02,-11.04l0 -23.35 -42.34 0z" class="fil6"/>
   <polygon points="5276.65,6614.55 5276.65,6461.85 5222.24,6461.85 5222.24,6430.8 5368.01,6430.8 5368.01,6461.85 5313.86,6461.85 5313.86,6614.55" class="fil6"/>
   <path d="M5639.7 6523.7c0,-18.74 2.82,-34.39 8.47,-47.22 4.11,-9.24 9.75,-17.71 17.2,-25.15 7.19,-7.44 15.14,-13.09 23.61,-16.69 11.55,-4.87 24.64,-7.19 39.78,-7.19 26.94,0 48.76,8.47 64.93,25.15 16.17,16.94 24.38,40.3 24.38,70.32 0,29.77 -7.95,52.87 -24.12,69.81 -16.17,16.68 -37.72,25.15 -64.67,25.15 -27.46,0 -49.28,-8.47 -65.44,-25.15 -15.91,-16.68 -24.13,-39.52 -24.13,-69.04zm38.24 -1.28c0,21.04 4.87,36.7 14.37,47.48 9.75,10.78 22.07,16.17 36.7,16.17 14.89,0 26.94,-5.39 36.7,-15.91 9.5,-10.78 14.12,-26.69 14.12,-48.25 0,-21.05 -4.62,-36.7 -13.86,-46.96 -9.24,-10.52 -21.56,-15.66 -36.96,-15.66 -15.14,0 -27.72,5.13 -36.96,15.66 -9.5,10.52 -14.11,26.43 -14.11,47.48z" class="fil6"/>
   <polygon points="6106.96,6614.55 6106.96,6430.8 6142.89,6430.8 6218.6,6553.98 6218.6,6430.8 6252.99,6430.8 6252.99,6614.55 6215.78,6614.55 6141.35,6493.67 6141.35,6614.55" class="fil6"/>
   <path d="M3533.07 5748.56c10.35,-2.22 20.7,-4.61 31.13,-7.17 0,-36.37 0.01,-72.74 0.02,-109.13l-31.21 0c0.03,38.81 0.05,77.59 0.05,116.29zm278.88 43.96c17.68,-5.37 35.19,-10.54 52.69,-15.94l0.09 -119.19 -52.9 6.26 -0.1 -0.02c0.07,42.28 0.16,85.14 0.21,128.89zm52.84 -220.93l0.05 -59.93 -53.11 0.05 -0.23 0.03c0.02,19.95 0.04,39.94 0.07,60.02l0.27 -0.04 52.95 -0.13zm0.12 -159.78l0.05 -75.63 -53.29 -2.72 -0.26 0.11c0.02,25.23 0.05,50.32 0.06,75.35l0.2 -0.09 53.25 2.97zm0.12 -169.17l0.04 -69.55 -53.59 -5.46 0 0 -0.28 0.19 0.07 70.6 0.26 -0.17 53.49 4.39zm0.07 -114.65l0.03 -36.71c0.06,-77.78 0.09,-155.63 0.13,-233.48l-54.33 -10.98 -0.06 0.05c0.02,22.28 0.05,44.56 0.07,66.83l0.12 -0.14 54.04 7.99 0 89.3 -53.84 -5.38 -0.21 0.2 0.07 68.35 0.24 -0.22 53.74 6.52 0 47.67zm0.18 -360.5l0.02 -65.89 -54.07 -10.53 -0.44 0.65c0.02,17.96 0.02,35.91 0.02,53.85l0 12.02 0.52 -0.75 0.02 -0.03 0 0.03 53.92 10.65zm0.06 -163.85c0.03,-66.11 0.06,-132.22 0.11,-198.31 -18.32,-6.08 -36.8,-12.36 -54.96,-18.63 0,68.16 0.1,136.37 0.19,204.51l0.68 -1.17 0 0.06 53.98 11.2 0 2.36zm-298.32 1032.37l0 -0.01 -2.63 -0.28 2.63 0.29zm-2.45 -84.7l-31.37 -0.02 -0.24 0.03 0.05 55.77 0.22 -0.03 31.01 0.04 0.02 -55.79 0.31 0zm-0.26 -96.33l-31.15 -3.38 -0.28 0.11c0.02,22.69 0.03,45.36 0.05,68.05l0.26 -0.1 31.2 -0.04 -0.12 0 0.04 -64.65zm0.26 -93.61l-31.47 -4.87 -0.23 0.15c0,20.65 0,41.31 0,61.98l0.28 -0.18 31.24 3.57 -0.07 -0.01 0.04 -60.69 0.21 0.03zm-0.16 -125.47l-0.02 0.02 0 -36.18 0.04 -0.04 0 -13.25 0.14 0.04 -31.56 -6.07 -0.11 0.15 -0 56.56 0.15 -0.18 31.37 5.83 0 -6.87zm0.04 -93.2l-0.07 0.09 0 -37.06 3 -4.26 -2.9 4.13 0 -4.07 -31.51 -3.98 -0.07 0.11 -0 55.69 0.11 -0.15 31.44 5.76 0 -16.26zm0.15 -184.96l-31.63 -4.45c-0.04,39.52 -0.05,79.03 -0.07,118.55l0.06 -0.08 31.53 3.55c0,35.24 0.1,-114.53 0.1,-117.56zm-0.21 315.91l-31.34 -7.55 -0.15 0.15 -0.02 58.85 0.21 -0.18 31.3 4.83 -0.01 0 0.01 -42.72 0 -13.37z" class="fil3"/>
   <path d="M3533.3 5748.44c-0.03,-38.67 -0.04,-77.41 -0.06,-116.18l-0.32 0 0 -0.09 -104.41 -11.78 104.72 -13.33 -0.03 -55.77 -123.76 17.6 123.74 -49.23 -0.03 -68.06 -148.11 62.56 148.1 -95.7 -0.04 -53.2 -0.01 -8.76 -140.85 95.49 140.83 -127.06 -0.03 -58.83 -129.22 120.94 129.2 -150.08 -0.02 -56.54 -120.52 144.37 120.52 -171.59 -0.02 -55.65 -0.01 0 -107.44 156.77c24.1,-40.69 107.43,-182.63 107.43,-182.57l0.01 0c-0.01,-41.07 -0.04,-81.14 -0.07,-118.74 -55.93,106.73 -129.65,261.91 -168.34,338.19 -84.62,160.96 -60.45,290.11 -0.68,369.64 36.48,52.16 97.22,75.81 169.4,87.59zm709.22 -511.56l0 -85.03 -377.04 159.32 0 25.04 -0.07 -0 -0.02 75.62 0.09 0.01 0 -24.69 377.04 -150.26zm0 -277.47l0 -84.05 -377.04 255.71 0 -61.13c-0.02,57.55 -0.04,115.14 -0.05,172.73l0.05 0 0 -39.31 377.04 -243.94zm0 -274.67l0 -83.16 -377 353.08 -0.03 70.3 377.03 -340.22zm0 -272.11l0 -82.3 -376.94 451.62 -0.02 68.65 376.96 -437.98zm0 -269.74l0 -81.27 -376.89 550.22 -0.02 67.74 376.91 -536.69zm0 -253.08l0 -188.75c-83.65,6.03 -137.1,113 -186.45,204.44 -64.13,118.83 -127.63,236.46 -190.4,352.49 0,79.22 -0,158.41 -0.02,237.58 52.46,-91.29 104.93,-182.5 157.39,-273.21 37.44,-64.73 177.41,-328.82 219.48,-332.55zm-377.23 1912.87c24.33,4.24 119.5,17.48 208.17,29.46 8.98,-8.95 18.63,-17.3 28.88,-24.94l0 -110.8 -236.86 -26.72 0 -12.38 -0.13 0.01c-0.02,48.48 -0.03,96.93 -0.05,145.37zm237.05 -268.06l0 -64.26 -236.86 33.69 0 7.6 -0.1 0 -0.02 59.93 0.12 0 0 -6.81 236.86 -30.15zm-290.37 254.02c-0.05,-41.87 -0.08,-83.53 -0.12,-125l-247.44 -27.91 0 -3.46 -0.17 0c-0.02,39.24 -0.02,78.48 -0.02,117.7 40.62,6.44 81.43,12.72 122.53,19.24 41.48,6.58 83.17,12.97 125.23,19.42zm-0.19 -216.91l-0.04 -60.02 -247.45 35.13 -0.04 56.26 247.53 -31.37zm-0.11 -162.89l-0.05 -75.36 -247.04 104.84c0,22.91 -0.22,45.68 -0.18,68.84l247.27 -98.32zm-0.12 -170.59l-0.06 -70.62 -246.91 167.52c0,28.99 -0.22,57.72 -0.25,86.89l0.07 0.01 0 -23.91 247.15 -159.89zm-0.16 -164.44c-0.03,-22.8 -0.03,-45.57 -0.03,-68.33l-0.08 -0.01 -246.85 231.19 0 6.87 0 0.08 -0.01 7.24 -0.01 22.81 0 0 -0 13.37 -0.01 42.72 0.01 0 0 -33.09 246.98 -222.86 0.01 0zm0.02 -160.19l0.07 -66.69 -0.54 -0.11 -246.47 295.89 -0 16.26 0.12 0.02 0 28.24 -0.14 -0.03 -0 13.25 246.63 -286.9 0.33 0.06zm0.16 -156.73c0.01,-21.89 0.01,-43.8 0.01,-65.74l-0.32 -0.06 -246.79 360.24 0.05 35.47 0 17.5 -0.01 -0.01 0 4.08 246.85 -351.51 0.02 -0.03 0 0.03 0.18 0.04zm-0.09 -166.78c-0.13,-67.16 -0.42,-134.86 -0.96,-203.41 -41.3,74.75 -84.51,145.67 -125.22,219.23 -40.43,73.07 -80.65,145.45 -120.51,217.76 -0.07,64.63 -0.15,129.23 -0.21,193.81 82.27,-141.3 164.53,-284.3 246.8,-427.46l0 0.06 0.09 0.02z" class="fil7"/>
  </g>
 </g>
</svg>