<?xml version="1.0" encoding="UTF-8"?>
<!DOCTYPE svg PUBLIC "-//W3C//DTD SVG 1.1//EN" "http://www.w3.org/Graphics/SVG/1.1/DTD/svg11.dtd">
<!-- Creator: CorelDRAW 2020 (64-Bit) -->
<svg xmlns="http://www.w3.org/2000/svg" xml:space="preserve" width="11.6929in" height="8.26772in" version="1.1" style="shape-rendering:geometricPrecision; text-rendering:geometricPrecision; image-rendering:optimizeQuality; fill-rule:evenodd; clip-rule:evenodd"
viewBox="0 0 11692.91 8267.72"
 xmlns:xlink="http://www.w3.org/1999/xlink"
 xmlns:xodm="http://www.corel.com/coreldraw/odm/2003">
 <defs>
  <style type="text/css">
   <![CDATA[
    .fil1 {fill:#898989;fill-rule:nonzero}
    .fil0 {fill:#E3D401;fill-rule:nonzero}
   ]]>
  </style>
 </defs>
 <g id="Слой_x0020_1">
  <metadata id="CorelCorpID_0Corel-Layer"/>
  <g id="_1791658886528">
   <path class="fil0" d="M5681.57 4287.93l-862.79 0c1.11,100.38 21.51,188.64 60.68,265.28 39.16,76.65 91.72,133.85 156.67,172.63 65.19,38.91 137.37,58.45 215.69,58.45 52.96,0 100.91,-6.35 144.53,-18.74 43.5,-12.36 86.02,-31.61 126.89,-57.9 41.26,-26.6 78.78,-54.79 113.09,-84.95 34.6,-30.43 78.76,-71.92 134.61,-123 21.91,-20.03 54.61,-29.22 96.54,-29.22 45.23,0 82.35,12.59 110.33,37.5 27.68,24.65 41.92,59.57 41.92,104.78 0,39.71 -15.7,86.81 -46.89,140.09 -31.1,53.12 -78.46,104.13 -141.77,153.33 -62.97,48.91 -141.89,89.67 -237.22,121.88 -95.5,32.27 -205.21,48.53 -328.79,48.53 -283.56,0 -504.22,-80.53 -661.42,-242.13 -157.22,-161.58 -236.12,-381.07 -236.12,-657.94 0,-130.15 19.58,-251.42 58.47,-362.89 38.83,-111.28 95.17,-207.09 169.36,-286.78 74.15,-79.67 166.12,-140.58 275.29,-183.1 108.67,-42.33 229.48,-63.99 361.88,-63.99 172.65,0 320.47,36.55 443.54,109.23 123.46,72.87 215.93,166.46 277.48,281.82 61.42,115.13 92.12,232.7 92.12,352.41 0,110.82 -31.91,182.78 -95.43,215.62 -63.3,32.73 -153.35,49.09 -268.66,49.09zm2922.92 -1569.38c25.03,0 49.45,6.4 73.33,19.22 23.81,12.87 42.44,31.23 55.72,55.16 13.29,23.87 19.96,48.83 19.96,74.8 0,25.68 -6.54,50.35 -19.69,74.04 -13.1,23.73 -31.51,42.15 -55.11,55.25 -23.69,13.14 -48.38,19.66 -74.22,19.66 -25.82,0 -50.59,-6.52 -74.2,-19.66 -23.68,-13.1 -42.09,-31.52 -55.24,-55.25 -13.22,-23.69 -19.78,-48.36 -19.78,-74.04 0,-25.97 6.69,-50.93 20.04,-74.8 13.37,-23.93 31.98,-42.29 55.85,-55.16 23.83,-12.82 48.3,-19.22 73.32,-19.22zm0 24.68c-20.97,0 -41.35,5.39 -61.17,16.12 -19.84,10.7 -35.35,26.09 -46.55,46 -11.2,19.96 -16.78,40.72 -16.78,62.37 0,21.43 5.52,42 16.52,61.69 10.99,19.71 26.37,35.06 46.14,46.07 19.76,10.98 40.33,16.51 61.85,16.51 21.45,0 42.1,-5.52 61.87,-16.51 19.76,-11.01 35.07,-26.37 46,-46.07 10.94,-19.7 16.4,-40.27 16.4,-61.69 0,-21.65 -5.54,-42.41 -16.66,-62.37 -11.14,-19.91 -26.65,-35.3 -46.55,-46 -19.9,-10.74 -40.28,-16.12 -61.05,-16.12zm-65.42 206.85l0 -160.39 55.11 0c18.89,0 32.51,1.41 40.94,4.37 8.44,2.97 15.11,8.16 20.18,15.54 4.98,7.39 7.49,15.23 7.49,23.52 0,11.75 -4.19,21.93 -12.55,30.62 -8.36,8.7 -19.5,13.56 -33.33,14.63 5.66,2.38 10.25,5.2 13.63,8.52 6.47,6.33 14.37,16.9 23.75,31.83l19.56 31.37 -31.64 0 -14.24 -25.31c-11.19,-19.83 -20.16,-32.3 -27.04,-37.3 -4.72,-3.7 -11.68,-5.51 -20.79,-5.51l-15.18 0 0 68.12 -25.9 0zm25.9 -90.26l31.44 0c14.98,0 25.22,-2.3 30.69,-6.75 5.46,-4.45 8.22,-10.39 8.22,-17.78 0,-4.72 -1.33,-8.97 -3.98,-12.76 -2.62,-3.71 -6.28,-6.54 -10.93,-8.36 -4.72,-1.89 -13.36,-2.78 -26.04,-2.78l-29.41 0 0 48.43zm-4377.79 929.01l-366.75 409.93 -0.34 -0.34c-35.39,36.69 -85.07,59.48 -140.07,59.48 -107.51,0 -194.67,-87.14 -194.67,-194.62 0,-60.53 27.63,-114.6 70.98,-150.28 46.04,-52.03 85.72,-97.56 118.91,-136.89 44.65,-52.89 80.54,-98.15 107.57,-135.65l-761.32 0c-3.08,0.15 -6.2,0.26 -9.33,0.26 -87.72,0 -158.83,-71.09 -158.83,-158.77 0,-87.71 71.12,-158.79 158.83,-158.79l0.52 0c1.92,-0.59 3.78,-0.94 5.54,-0.94l1151.79 0c107.98,0 195.72,84.81 195.72,193.39 0,51.03 -19.81,97.41 -52.12,131.94 -15.11,18.08 -36.29,42 -50.85,58.52 -20.36,23.1 -45.8,50.74 -75.58,82.74zm-832.75 444.96c107.51,0 194.67,87.14 194.67,194.62 0,54.61 -22.52,103.95 -58.76,139.32l-111.35 124.44 864.44 0c70.06,0 123.07,16.58 158.33,49.08 35.83,33.06 53.52,75.57 53.52,126.85 0,49.64 -17.57,90.09 -52.41,121.33 -35.15,31.54 -88.35,46.88 -159.43,46.88l-1195.99 0c-83.77,0 -146.65,-18.39 -188.12,-55.16 -41.18,-36.49 -62.32,-86.59 -62.32,-150.01 0,-37.5 14.26,-75.7 43.57,-114.14 29.06,-38.11 89.11,-108.41 180.94,-210.68 65.62,-73.09 127.44,-141.5 185.07,-205.07l0.26 0.22c35.69,-41.43 88.56,-67.69 147.58,-67.69zm1464.36 -196.26l799.9 0c-10.48,-150.55 -51.48,-263.5 -121.92,-338.05 -70.73,-74.84 -163.28,-112.51 -278.58,-112.51 -110.33,0 -200.41,37.95 -270.87,113.61 -70.72,75.93 -113.65,188.62 -128.53,336.95zm1379.65 -715.3l48.55 0 0 -265.27c0,-71.13 1.7,-126.85 5.52,-167.1 3.85,-40.79 14.51,-75.48 31.44,-104.24 17.78,-30.2 42.3,-54.94 74.48,-73.89 32.34,-19.06 68.4,-28.11 108.67,-28.11 55.71,0 106.5,20.97 151.7,62.84 30.33,28.1 49.18,62.34 57.39,102.59 8.3,40.8 12.13,98.23 12.13,172.64l0 300.55 161.63 0c62.34,0 110.1,15.22 142.89,44.68 32.82,29.5 49.63,67.28 49.63,113.6 0,59.01 -23.74,100.96 -70.59,124.65 -46.87,23.68 -113.69,35.31 -201.36,35.31l-82.19 0 0 810.7c0,68.9 2.19,122.43 7.17,159.37 4.97,36.96 17.54,67.44 38.62,90.45 21.34,23.27 55.71,34.76 103.15,34.76 25.38,0 60.71,-4.45 104.82,-13.8 44.11,-9.34 78.88,-13.76 103.15,-13.76 35.86,0 67.87,14.31 96.54,43 28.69,28.67 42.48,63.43 42.48,105.9 0,71.14 -38.8,124.87 -116.39,162.7 -77.38,37.69 -188.67,56.8 -334.31,56.8 -137.92,0 -242.67,-23.3 -313.35,-69.48 -71.06,-46.45 -118,-110.36 -140.11,-192.49 -21.97,-81.63 -33.09,-190.81 -33.09,-327.57l0 -846.57 -57.92 0c-63.95,0 -112.43,-15.06 -145.64,-45.24 -33.51,-30.43 -50.2,-68.38 -50.2,-114.72 0,-46.32 17.69,-84.36 52.4,-113.6 35.3,-29.74 86.06,-44.68 152.81,-44.68zm2214.33 1505.63c-107.02,82.72 -210.19,145.03 -309.47,186.38 -99.85,41.37 -211.84,62.34 -335.41,62.34 -113.63,0 -212.93,-22.63 -298.44,-67.28 -85.51,-44.68 -151.71,-104.8 -198.05,-181.44 -46.33,-76.68 -69.5,-159.39 -69.5,-248.75 0,-120.78 38.07,-223.37 114.74,-308.83 76.69,-84.94 181.49,-142.3 315.55,-170.96 27.59,-6.61 97.09,-20.97 208.53,-43.58 110.88,-23.15 205.76,-43.55 285.21,-62.32 78.88,-19.31 164.94,-41.91 257.63,-68.93 -5.52,-116.36 -28.69,-201.86 -70.06,-255.88 -41.93,-54.62 -127.44,-81.63 -258.19,-81.63 -111.97,0 -196.37,15.43 -252.64,46.88 -56.83,31.43 -105.38,77.75 -145.65,140.63 -40.26,62.32 -68.95,103.69 -85.51,123.56 -17.09,19.85 -52.95,29.77 -107.56,29.77 -49.65,0 -92.69,-15.98 -128.54,-47.98 -36.41,-31.43 -54.07,-72.25 -54.07,-121.88 0,-77.2 27.03,-152.78 82.21,-226.13 55.16,-73.33 140.67,-133.45 257.06,-180.89 116.41,-47.43 260.94,-71.16 434.7,-71.16 194.2,0 346.46,23.18 457.33,68.94 110.89,45.79 189.23,118.04 235.01,217.31 45.78,98.7 68.95,230.51 68.95,394.33 0,103.11 -0.55,191.37 -1.1,263.06 -0.55,72.23 -1.11,152.78 -2.19,241 0,82.74 13.79,169.31 41.36,259.2 27.59,89.9 40.83,147.8 40.83,173.74 0,45.2 -20.96,86.57 -63.44,123.54 -42.47,36.95 -91.03,55.7 -144.53,55.7 -45.23,0 -89.91,-21.52 -134.06,-63.99 -44.68,-42.44 -91.03,-103.66 -140.68,-184.73zm-29.23 -638.11c-64.55,23.73 -158.88,48.53 -281.9,75.02 -123.57,26.46 -209.08,45.75 -256.52,58.45 -47.44,12.13 -92.67,36.39 -135.71,72.8 -43.04,35.85 -64.54,86.02 -64.54,150.57 0,67.28 25.36,124.07 76.12,170.97 50.76,46.86 116.96,70.04 198.6,70.04 87.16,0 167.7,-19.3 241.62,-57.37 73.92,-38.06 127.98,-87.69 162.74,-147.81 39.72,-66.72 59.58,-176.47 59.58,-329.78l0 -62.89z"/>
   <path class="fil1" d="M2797 5586.57m167.13 -44.3c-14.26,8.22 -29.77,11.38 -45.59,11.38 -46.84,0 -80.09,-32.9 -80.09,-77.85 0,-45.88 33.25,-77.85 80.4,-77.85 23.75,0 43.68,7.92 61.1,25.33l25.96 -25.33c-20.9,-23.73 -51.92,-36.07 -88.94,-36.07 -69.32,0 -119.97,47.8 -119.97,113.92 0,66.14 50.65,113.92 119.32,113.92 31.35,0 63.63,-9.5 86.74,-28.16l0 -88.29 -38.93 0 0 69z"/>
   <path class="fil1" d="M3206.37 5586.57m189.29 0l-50.96 -72.78c30.07,-11.7 47.17,-36.4 47.17,-69.93 0,-49.06 -36.09,-78.8 -94.33,-78.8l-91.17 0 0 221.51 41.15 0 0 -64.56 50.02 0c2.85,0 5.69,0 8.54,-0.31l45.26 64.87 44.31 0zm-45.26 -142.71c0,27.84 -18.67,44.3 -54.76,44.3l-48.11 0 0 -88.29 48.11 0c36.09,0 54.76,16.13 54.76,43.99z"/>
   <path class="fil1" d="M3571.12 5586.57m119.33 3.16c68.69,0 119.34,-48.1 119.34,-113.92 0,-65.82 -50.65,-113.92 -119.34,-113.92 -68.68,0 -119.33,48.43 -119.33,113.92 0,65.51 50.65,113.92 119.33,113.92zm0 -36.07c-44.62,0 -77.87,-32.6 -77.87,-77.85 0,-45.25 33.25,-77.85 77.87,-77.85 44.63,0 77.88,32.6 77.88,77.85 0,45.25 -33.25,77.85 -77.88,77.85z"/>
   <path class="fil1" d="M4000.74 5586.57m97.19 3.16c60.45,0 96.86,-35.13 96.86,-99.67l0 -125 -40.52 0 0 123.42c0,45.56 -20.25,65.18 -56.02,65.18 -35.78,0 -56.36,-19.62 -56.36,-65.18l0 -123.42 -41.15 0 0 125c0,64.55 36.41,99.67 97.19,99.67z"/>
   <path class="fil1" d="M4401.58 5586.57m91.17 -221.51l-91.17 0 0 221.51 41.15 0 0 -63.92 50.02 0c58.24,0 94.33,-30.07 94.33,-78.8 0,-49.06 -36.09,-78.8 -94.33,-78.8zm-1.9 122.78l-48.12 0 0 -87.97 48.12 0c36.09,0 54.76,16.13 54.76,43.99 0,27.84 -18.67,43.98 -54.76,43.98z"/>
   <path class="fil1" d="M4852.1 5586.57m119.32 3.16c68.69,0 119.34,-48.1 119.34,-113.92 0,-65.82 -50.65,-113.92 -119.34,-113.92 -68.68,0 -119.32,48.43 -119.32,113.92 0,65.51 50.65,113.92 119.32,113.92zm0 -36.07c-44.62,0 -77.87,-32.6 -77.87,-77.85 0,-45.25 33.25,-77.85 77.87,-77.85 44.63,0 77.88,32.6 77.88,77.85 0,45.25 -33.25,77.85 -77.88,77.85z"/>
   <path class="fil1" d="M5283.61 5586.57m161.75 -187.03l0 -34.48 -161.75 0 0 221.51 41.15 0 0 -84.81 106.99 0 0 -34.8 -106.99 0 0 -67.41 120.6 0z"/>
   <path class="fil1" d="M5705.96 5586.57m118.39 3.16c36.39,0 67.42,-12.98 87.99,-37.01l-26.59 -25.32c-16.14,17.71 -36.09,26.26 -59.19,26.26 -45.89,0 -79.14,-32.28 -79.14,-77.85 0,-45.56 33.25,-77.85 79.14,-77.85 23.11,0 43.06,8.55 59.19,25.96l26.59 -25c-20.57,-24.05 -51.6,-37.03 -87.69,-37.03 -68.05,0 -118.69,47.8 -118.69,113.92 0,66.14 50.65,113.92 118.39,113.92z"/>
   <path class="fil1" d="M6080.53 5586.57m119.32 3.16c68.69,0 119.34,-48.1 119.34,-113.92 0,-65.82 -50.65,-113.92 -119.34,-113.92 -68.68,0 -119.32,48.43 -119.32,113.92 0,65.51 50.65,113.92 119.32,113.92zm0 -36.07c-44.62,0 -77.87,-32.6 -77.87,-77.85 0,-45.25 33.25,-77.85 77.87,-77.85 44.63,0 77.88,32.6 77.88,77.85 0,45.25 -33.25,77.85 -77.88,77.85z"/>
   <path class="fil1" d="M6512.05 5586.57m242.79 0l-0.32 -221.51 -33.86 0 -86.73 146.83 -87.99 -146.83 -33.88 0 0 221.51 39.25 0 0 -144.94 72.8 119.63 18.36 0 73.13 -121.53 0.31 146.84 38.94 0z"/>
   <path class="fil1" d="M6963.54 5586.57m91.17 -221.51l-91.17 0 0 221.51 41.15 0 0 -63.92 50.02 0c58.24,0 94.33,-30.07 94.33,-78.8 0,-49.06 -36.09,-78.8 -94.33,-78.8zm-1.9 122.78l-48.12 0 0 -87.97 48.12 0c36.09,0 54.76,16.13 54.76,43.99 0,27.84 -18.67,43.98 -54.76,43.98z"/>
   <path class="fil1" d="M7296.94 5586.57m197.2 0l43.04 0 -100.02 -221.51 -40.52 0 -99.7 221.51 42.41 0 21.85 -51.26 110.78 0 22.17 51.26zm-119.02 -83.54l41.46 -96.83 41.78 96.83 -83.24 0z"/>
   <path class="fil1" d="M7714.53 5586.57m156.06 -221.51l0 150 -122.18 -150 -33.88 0 0 221.51 40.85 0 0 -150 122.18 150 33.86 0 0 -221.51 -40.83 0z"/>
   <path class="fil1" d="M8120.1 5586.57m0 0l41.15 0 0 -221.51 -41.15 0 0 221.51z"/>
   <path class="fil1" d="M8370.25 5586.57m41.15 -34.5l0 -61.06 106.99 0 0 -33.87 -106.99 0 0 -57.6 120.59 0 0 -34.48 -161.74 0 0 221.51 166.18 0 0 -34.5 -125.03 0z"/>
   <path class="fil1" d="M8712.83 5586.57m87.36 3.16c60.78,0 89.57,-30.37 89.57,-65.82 0,-81.33 -131.35,-50.63 -131.35,-97.78 0,-16.77 13.93,-30.07 48.12,-30.07 19.3,0 41.15,5.71 61.08,17.41l12.98 -31.96c-19.3,-12.65 -47.16,-19.62 -73.75,-19.62 -60.78,0 -89.25,30.39 -89.25,66.14 0,82.28 131.67,50.96 131.67,98.74 0,16.46 -14.56,28.79 -49.07,28.79 -27.22,0 -55.39,-10.13 -73.12,-24.36l-14.24 31.95c18.37,15.83 52.86,26.58 87.36,26.58z"/>
  </g>
 </g>
</svg>
